<svg width="30" height="42" viewBox="0 0 30 42" fill="none" xmlns="http://www.w3.org/2000/svg">
<path d="M30 4.5C29.9988 3.30691 29.5243 2.16303 28.6806 1.31939C27.837 0.475745 26.6931 0.00124087 25.5 0H4.5C3.30691 0.00124087 2.16303 0.475745 1.31939 1.31939C0.475745 2.16303 0.00124087 3.30691 0 4.5V37.5C0.00124087 38.6931 0.475745 39.837 1.31939 40.6806C2.16303 41.5243 3.30691 41.9988 4.5 42H25.5C26.6931 41.9988 27.837 41.5243 28.6806 40.6806C29.5243 39.837 29.9988 38.6931 30 37.5V4.5ZM6.75 37.5C6.30499 37.5 5.86998 37.368 5.49997 37.1208C5.12996 36.8736 4.84157 36.5222 4.67127 36.111C4.50097 35.6999 4.45642 35.2475 4.54323 34.811C4.63005 34.3746 4.84434 33.9737 5.15901 33.659C5.47368 33.3443 5.87459 33.13 6.31105 33.0432C6.7475 32.9564 7.1999 33.001 7.61104 33.1713C8.02217 33.3416 8.37357 33.63 8.62081 34C8.86804 34.37 9 34.805 9 35.25C9 35.8467 8.76295 36.419 8.34099 36.841C7.91903 37.2629 7.34674 37.5 6.75 37.5ZM6.75 30C6.30499 30 5.86998 29.868 5.49997 29.6208C5.12996 29.3736 4.84157 29.0222 4.67127 28.611C4.50097 28.1999 4.45642 27.7475 4.54323 27.311C4.63005 26.8746 4.84434 26.4737 5.15901 26.159C5.47368 25.8443 5.87459 25.63 6.31105 25.5432C6.7475 25.4564 7.1999 25.501 7.61104 25.6713C8.02217 25.8416 8.37357 26.13 8.62081 26.5C8.86804 26.87 9 27.305 9 27.75C9 28.3467 8.76295 28.919 8.34099 29.341C7.91903 29.7629 7.34674 30 6.75 30ZM6.75 22.5C6.30499 22.5 5.86998 22.368 5.49997 22.1208C5.12996 21.8736 4.84157 21.5222 4.67127 21.111C4.50097 20.6999 4.45642 20.2475 4.54323 19.811C4.63005 19.3746 4.84434 18.9737 5.15901 18.659C5.47368 18.3443 5.87459 18.13 6.31105 18.0432C6.7475 17.9564 7.1999 18.001 7.61104 18.1713C8.02217 18.3416 8.37357 18.63 8.62081 19C8.86804 19.37 9 19.805 9 20.25C9 20.8467 8.76295 21.419 8.34099 21.841C7.91903 22.2629 7.34674 22.5 6.75 22.5V22.5ZM15 37.5C14.555 37.5 14.12 37.368 13.75 37.1208C13.38 36.8736 13.0916 36.5222 12.9213 36.111C12.751 35.6999 12.7064 35.2475 12.7932 34.811C12.88 34.3746 13.0943 33.9737 13.409 33.659C13.7237 33.3443 14.1246 33.13 14.561 33.0432C14.9975 32.9564 15.4499 33.001 15.861 33.1713C16.2722 33.3416 16.6236 33.63 16.8708 34C17.118 34.37 17.25 34.805 17.25 35.25C17.25 35.8467 17.0129 36.419 16.591 36.841C16.169 37.2629 15.5967 37.5 15 37.5ZM15 30C14.555 30 14.12 29.868 13.75 29.6208C13.38 29.3736 13.0916 29.0222 12.9213 28.611C12.751 28.1999 12.7064 27.7475 12.7932 27.311C12.88 26.8746 13.0943 26.4737 13.409 26.159C13.7237 25.8443 14.1246 25.63 14.561 25.5432C14.9975 25.4564 15.4499 25.501 15.861 25.6713C16.2722 25.8416 16.6236 26.13 16.8708 26.5C17.118 26.87 17.25 27.305 17.25 27.75C17.25 28.3467 17.0129 28.919 16.591 29.341C16.169 29.7629 15.5967 30 15 30ZM15 22.5C14.555 22.5 14.12 22.368 13.75 22.1208C13.38 21.8736 13.0916 21.5222 12.9213 21.111C12.751 20.6999 12.7064 20.2475 12.7932 19.811C12.88 19.3746 13.0943 18.9737 13.409 18.659C13.7237 18.3443 14.1246 18.13 14.561 18.0432C14.9975 17.9564 15.4499 18.001 15.861 18.1713C16.2722 18.3416 16.6236 18.63 16.8708 19C17.118 19.37 17.25 19.805 17.25 20.25C17.25 20.8467 17.0129 21.419 16.591 21.841C16.169 22.2629 15.5967 22.5 15 22.5V22.5ZM25.5 35.25C25.5 35.8467 25.2629 36.419 24.841 36.841C24.419 37.2629 23.8467 37.5 23.25 37.5C22.6533 37.5 22.081 37.2629 21.659 36.841C21.2371 36.419 21 35.8467 21 35.25V27.75C21 27.1533 21.2371 26.581 21.659 26.159C22.081 25.7371 22.6533 25.5 23.25 25.5C23.8467 25.5 24.419 25.7371 24.841 26.159C25.2629 26.581 25.5 27.1533 25.5 27.75V35.25ZM23.25 22.5C22.805 22.5 22.37 22.368 22 22.1208C21.63 21.8736 21.3416 21.5222 21.1713 21.111C21.001 20.6999 20.9564 20.2475 21.0432 19.811C21.13 19.3746 21.3443 18.9737 21.659 18.659C21.9737 18.3443 22.3746 18.13 22.811 18.0432C23.2475 17.9564 23.6999 18.001 24.111 18.1713C24.5222 18.3416 24.8736 18.63 25.1208 19C25.368 19.37 25.5 19.805 25.5 20.25C25.5 20.8467 25.2629 21.419 24.841 21.841C24.419 22.2629 23.8467 22.5 23.25 22.5V22.5ZM25.0603 13.0603C24.7791 13.3417 24.3978 13.4998 24 13.5H6C5.60218 13.5 5.22064 13.342 4.93934 13.0607C4.65804 12.7794 4.5 12.3978 4.5 12V6C4.5 5.60218 4.65804 5.22064 4.93934 4.93934C5.22064 4.65804 5.60218 4.5 6 4.5H24C24.3978 4.5 24.7794 4.65804 25.0607 4.93934C25.342 5.22064 25.5 5.60218 25.5 6V12C25.4998 12.3978 25.3417 12.7791 25.0603 13.0603Z" fill="black"/>
</svg>
